HIERARCHY
ROOT Hips
{
	OFFSET 0.00000 0.00000 0.00000
	CHANNELS 6 Xposition Yposition Zposition Yrotation Zrotation Xrotation 
	JOINT Lumbar
	{
		OFFSET 0 0 0
		CHANNELS 3 Zrotation Xrotation Yrotation
		JOINT Neck
		{
			OFFSET 0.00 0.2701 0.00
			CHANNELS 3 Zrotation Xrotation Yrotation
			End Site
			{
				OFFSET 0.00 0.1379 0.00
			}
		}
		JOINT RightShoulder
		{
			OFFSET 0.0119 0.2289 0.1181
			CHANNELS 3 Zrotation Xrotation Yrotation
			JOINT RightElbow
			{
				OFFSET 0.00 -0.1475 0.00
				CHANNELS 2 Zrotation Yrotation
				JOINT RightWrist
				{
					OFFSET 0.00 -0.1605 0.00
					CHANNELS 2 Zrotation Xrotation
					End Site
					{
						OFFSET 0.0040 -0.1068 0.0006
					}
				}
			}
		}
		JOINT LeftShoulder
		{
			OFFSET 0.0119 0.2289 -0.1181
			CHANNELS 3 Zrotation Xrotation Yrotation
			JOINT LeftElbow
			{
				OFFSET 0.00 -0.1475 0.00
				CHANNELS 2 Zrotation Yrotation
				JOINT LeftWrist
				{
					OFFSET 0.00 -0.1605 0.00
					CHANNELS 2 Zrotation Xrotation
					End Site
					{
						OFFSET 0.0040 -0.1068 -0.0006
					}
				}
			}
		}
	}
	JOINT RightHip
	{
		OFFSET 0.0316 -0.0424 0.0458
		CHANNELS 3 Zrotation Xrotation Yrotation
		JOINT RightKnee
		{
			OFFSET 0.00 -0.2438 0.00
			CHANNELS 1 Zrotation
			JOINT RightAnkle
			{
				OFFSET 0.00 -0.2449 0.00
				CHANNELS 3 Zrotation Xrotation Yrotation
				End Site
				{
					OFFSET 0.1237 -0.0542 0.0051
				}
			}
		}
	}
	JOINT LeftHip
	{
		OFFSET 0.0316 -0.0424 -0.0458
		CHANNELS 3 Zrotation Xrotation Yrotation
		JOINT LeftKnee
		{
			OFFSET 0.00 -0.2438 0.00
			CHANNELS 1 Zrotation
			JOINT LeftAnkle
			{
				OFFSET 0.00 -0.2449 0.00
				CHANNELS 3 Zrotation Xrotation Yrotation
				End Site
				{
					OFFSET 0.1237 -0.0542 -0.0051
				}
			}
		}
	}
}
MOTION
Frames: 23
Frame Time: 0.02
0.78128 0.57933 0.37123 792.5406 0 -7.64784 -2.18914 8.92445 4.31074 -35.32843 -6.8531 -0.91493 34.88734 -10.74848 -8.17557 9.39992 82.03652 -3.10379 -3.57727 21.19883 47.6783 -42.71636 90.99373 -81.17824 -1.10785 -0.00461 11.11465 8.67311 3.67431 -19.30191 -2.55379 -1.89253 -1.54047 12.04352 4.46221 -6.94122 -69.41308 -5.41122 0.09248 -9.46885
0.78575 0.58043 0.3637 793.01551 0 -7.44373 -2.19723 8.75407 4.8741 -35.26035 -6.94713 -0.59602 37.3598 -11.47401 -7.14796 10.217 82.06892 -3.37353 -4.07491 21.34404 47.56582 -42.90812 91.05532 -81.1799 -1.0759 0.04285 9.88458 8.57974 3.24507 -18.6539 -2.20176 -1.85056 -1.49884 13.87658 4.14466 -6.38027 -70.14539 -4.88821 0.36996 -7.78651
0.78969 0.58159 0.3563 793.39181 0 -7.18231 -2.22749 8.516 5.48401 -35.20215 -7.06722 -0.27547 39.83473 -12.17653 -5.77747 11.20265 82.166 -3.70224 -4.64 21.42145 47.49577 -43.02031 91.17616 -81.17033 -1.06743 0.17164 8.56994 8.39807 2.83844 -17.75711 -1.91358 -1.77044 -1.3229 15.46802 3.73982 -5.67031 -69.7605 -3.69473 0.63216 -5.69674
0.79385 0.58269 0.34885 793.81863 0 -6.95167 -2.25103 8.31296 6.06791 -35.12987 -7.17571 0.04094 42.2855 -12.87996 -4.56948 12.12239 82.32178 -4.02481 -5.17322 21.52703 47.40777 -43.17323 91.26707 -81.16683 -1.04709 0.25461 7.29375 8.26339 2.43065 -16.97356 -1.59357 -1.71484 -1.22663 17.14897 3.38554 -5.03779 -69.8056 -2.82663 0.88778 -3.87164
0.79811 0.58393 0.3414 794.21932 0 -6.69722 -2.26296 8.08769 6.6743 -35.09393 -7.28256 0.3735 44.84163 -13.62989 -3.323 12.9993 82.1074 -4.25528 -5.71394 21.6421 47.31288 -43.30961 91.37169 -81.15603 -1.0315 0.36755 6.01154 8.09639 1.98842 -16.17537 -1.28217 -1.63005 -1.05816 18.92903 2.97605 -4.37658 -70.18618 -1.86826 1.19649 -1.71006
0.80204 0.58488 0.33396 794.65287 0 -6.48043 -2.30336 7.89415 7.24284 -34.98674 -7.39835 0.67151 47.17274 -14.27413 -2.07917 14.00572 82.67726 -4.69672 -6.25285 21.72164 47.24232 -43.4601 91.46147 -81.15869 -1.01252 0.44011 4.72446 7.97741 1.62072 -15.3552 -0.96864 -1.59661 -1.00594 20.43659 2.66401 -3.73215 -69.59355 -0.94107 1.39299 -0.1501
0.80527 0.58501 0.32653 795.18787 0 -6.37876 -2.41672 7.80595 7.71121 -34.6744 -7.54353 0.88132 48.91762 -14.64415 -0.92795 15.31376 85.41098 -5.66262 -6.78657 21.72338 47.23584 -43.67381 91.4952 -81.20489 -0.96819 0.38281 3.44035 8.00755 1.46601 -14.52065 -0.64094 -1.71402 -1.30452 21.29394 2.64629 -3.20644 -66.66689 -0.24795 1.27788 -0.38489
0.80819 0.58482 0.31908 795.76176 0 -6.31789 -2.55754 7.75226 8.13677 -34.29179 -7.69497 1.05484 50.42754 -14.9055 0.20698 16.74828 88.92584 -6.84455 -7.31309 21.69145 47.25136 -43.90324 91.51186 -81.26464 -0.92128 0.28295 2.15618 8.09023 1.3829 -13.67787 -0.3079 -1.88441 -1.72427 21.87598 2.72985 -2.69541 -62.78681 0.38767 1.05209 -1.23281
0.81124 0.58476 0.31162 796.32704 0 -6.24091 -2.68569 7.68285 8.57171 -33.94557 -7.83653 1.23969 52.02229 -15.20824 1.34954 18.13434 92.07788 -7.95969 -7.83194 21.67257 47.25222 -44.12206 91.53662 -81.31663 -0.88243 0.20249 0.87521 8.15285 1.25804 -12.84915 0.02673 -2.03039 -2.08971 22.55443 2.76646 -2.15194 -59.28771 1.03856 0.88085 -1.77932
0.81435 0.5848 0.30425 796.8515 0 -6.15212 -2.81587 7.61182 9.05131 -33.5802 -8.00871 1.44595 53.71428 -15.54468 2.50567 19.48928 95.27843 -8.955 -8.3989 21.66014 47.27391 -44.35287 91.56222 -81.37586 -0.81611 0.12401 -0.42358 8.19701 1.17224 -11.96465 0.3415 -2.176 -2.44774 23.34587 2.80563 -1.7095 -55.96065 1.75778 0.69027 -2.41041
0.81725 0.58454 0.29667 797.47035 0 -6.09773 -2.94752 7.55241 9.42651 -33.23869 -8.11819 1.59952 55.14235 -15.78457 3.62216 20.93558 98.54601 -10.23707 -8.86363 21.62799 47.25724 -44.56333 91.58101 -81.42224 -0.80508 0.03084 -1.68242 8.29227 1.02261 -11.20182 0.70064 -2.33608 -2.85127 23.83963 2.86235 -1.06548 -52.0757 2.31345 0.5149 -3.01282
0.81965 0.58353 0.28855 798.35038 0 -6.1343 -3.0807 7.52466 9.52889 -32.97377 -8.05385 1.61179 55.94636 -15.79083 4.65644 22.60823 101.95363 -12.37413 -9.04251 21.54264 47.12639 -44.71513 91.58704 -81.43989 -0.95631 -0.09756 -2.84429 8.52456 0.67209 -10.74466 1.17265 -2.51754 -3.35401 23.58013 2.96399 0.16717 -46.78785 2.41717 0.40018 -3.4183
0.82184 0.58223 0.2802 799.32235 0 -6.20336 -3.2134 7.50631 9.52673 -32.73644 -7.92602 1.57315 56.48427 -15.70219 5.64512 24.36296 105.37696 -14.77135 -9.11952 21.44011 46.9566 -44.84602 91.58624 -81.44233 -1.16174 -0.23872 -3.96253 8.80506 0.25615 -10.4186 1.69056 -2.71275 -3.8978 23.03181 3.07657 1.59646 -40.99869 2.35688 0.30624 -3.7701
0.82409 0.58105 0.27191 800.24656 0 -6.25384 -3.34358 7.47873 9.56863 -32.49075 -7.82641 1.56086 57.11267 -15.65346 6.63783 26.08064 108.69337 -16.97188 -9.24617 21.35052 46.8062 -44.986 91.58693 -81.44516 -1.33602 -0.37114 -5.0921 9.05845 -0.12537 -10.05367 2.1938 -2.90584 -4.42211 22.61562 3.17037 2.91728 -35.50261 2.37861 0.20843 -4.127
0.82648 0.57992 0.26378 801.19864 0 -6.32145 -3.48673 7.47313 9.62272 -32.2251 -7.7292 1.53372 57.86035 -15.61619 7.70131 27.81693 112.44671 -19.50726 -9.35802 21.23859 46.64905 -45.12827 91.59355 -81.47593 -1.53666 -0.51748 -6.25952 9.33642 -0.52449 -9.59655 2.67285 -3.0843 -4.95654 22.18468 3.32489 4.32122 -29.68155 2.37004 0.08325 -4.58526
0.82853 0.57861 0.25527 802.11233 0 -6.361 -3.60183 7.42368 9.6283 -32.00831 -7.61246 1.52592 58.30078 -15.53182 8.60593 29.51329 115.29814 -21.40912 -9.47716 21.16886 46.4969 -45.26054 91.58684 -81.4448 -1.69665 -0.63723 -7.33536 9.57289 -0.90305 -9.3681 3.21084 -3.29458 -5.47493 21.72113 3.35555 5.59529 -24.45031 2.38271 0.02143 -4.81327
0.82975 0.5769 0.24582 802.91239 0 -6.31114 -3.64407 7.24964 9.51511 -31.9223 -7.45192 1.58336 57.94508 -15.35923 9.08782 31.24314 115.51507 -21.44942 -9.63552 21.22609 46.36395 -45.37053 91.54127 -81.24641 -1.71882 -0.68075 -8.18693 9.691 -1.21364 -9.69705 3.91714 -3.59839 -5.96388 21.22518 3.02895 6.49185 -20.81086 2.52523 0.13016 -4.4026
0.83063 0.57502 0.23598 803.6681 0 -6.23235 -3.65705 7.03134 9.35846 -31.88474 -7.27503 1.66188 57.29152 -15.13969 9.40969 32.90027 114.83877 -20.84814 -9.8053 21.3254 46.23815 -45.47072 91.48333 -80.98671 -1.70007 -0.69665 -8.943 9.76323 -1.50158 -10.2617 4.67599 -3.93095 -6.4288 20.70988 2.57869 7.2445 -17.81692 2.69001 0.30228 -3.76188
0.83163 0.57322 0.22627 804.43363 0 -6.16936 -3.68045 6.83374 9.22922 -31.82318 -7.10895 1.73193 56.78572 -14.92982 9.80284 34.48063 114.66858 -20.57518 -9.97435 21.40154 46.11151 -45.57562 91.43353 -80.75437 -1.70871 -0.72498 -9.73287 9.85179 -1.7961 -10.74322 5.40232 -4.24523 -6.88935 20.21384 2.19337 8.04518 -14.63715 2.82341 0.44562 -3.23411
0.83277 0.5714 0.21677 805.24427 0 -6.09679 -3.71631 6.63343 9.06557 -31.76943 -6.92578 1.79733 56.22398 -14.76537 10.20406 36.52125 114.10628 -20.16869 -10.1232 21.49414 45.97282 -45.68016 91.37268 -80.52148 -1.68395 -0.7549 -10.56778 9.96393 -2.10518 -11.11901 6.17502 -4.58551 -7.42101 19.66477 1.77353 8.93017 -10.98572 3.03752 0.58988 -2.6699
0.83353 0.5696 0.20674 805.95143 0 -6.03629 -3.71889 6.42885 8.96261 -31.71239 -6.77592 1.87579 55.70422 -14.497 10.54655 37.59282 114.11095 -19.86897 -10.3154 21.5627 45.86208 -45.78156 91.33219 -80.27808 -1.71605 -0.77403 -11.27921 10.01193 -2.3819 -11.78062 6.85262 -4.87391 -7.79196 19.22361 1.39364 9.59768 -8.47611 3.09507 0.74656 -2.12692
0.83347 0.56784 0.19539 806.36361 0 -6.0213 -3.64003 6.21708 9.05612 -31.61867 -6.71567 2.00527 55.43751 -13.94898 10.8042 35.93576 116.22037 -20.15502 -10.64812 21.55482 45.8221 -45.89267 91.34976 -79.99689 -1.93481 -0.7767 -11.73609 9.92447 -2.53556 -13.0768 7.34117 -5.05066 -7.7795 19.101 1.17567 9.74464 -8.9699 2.6809 0.92581 -1.70538
0.83303 0.56613 0.18353 806.67603 0 -6.01854 -3.52824 6.00379 9.20953 -31.5227 -6.69104 2.14376 55.21297 -13.29944 11.00095 33.31828 118.87284 -20.54593 -11.01969 21.52156 45.81145 -45.99824 91.38866 -79.71138 -2.20847 -0.76847 -12.05933 9.76863 -2.66228 -14.66997 7.71433 -5.16784 -7.59638 19.08554 0.99867 9.6698 -10.59054 2.11599 1.11437 -1.31313
